<?xml version="1.0" standalone="no"?>
<!DOCTYPE svg PUBLIC "-//W3C//DTD SVG 20010904//EN"
 "http://www.w3.org/TR/2001/REC-SVG-20010904/DTD/svg10.dtd">
<svg version="1.0" xmlns="http://www.w3.org/2000/svg"
 width="700.000000pt" height="700.000000pt" viewBox="0 0 700.000000 700.000000"
 preserveAspectRatio="xMidYMid meet">
<metadata>
Created by potrace 1.11, written by Peter Selinger 2001-2013
</metadata>
<g transform="translate(0.000000,700.000000) scale(0.100000,-0.100000)"
fill="#000000" stroke="none">
<path d="M4766 5823 c-106 -36 -131 -171 -47 -247 12 -11 21 -22 21 -26 0 -4
-35 -8 -78 -9 -43 -1 -92 -4 -108 -6 -79 -13 -99 -17 -152 -34 -295 -95 -524
-346 -589 -645 -31 -140 -22 -322 21 -447 26 -74 27 -73 -76 -54 -123 24 -394
24 -519 0 -13 -3 -40 -7 -60 -10 -20 -3 -50 -10 -68 -15 -17 -5 -34 -9 -36 -9
-13 0 -127 -35 -190 -58 -137 -50 -384 -186 -447 -246 -7 -7 -33 -28 -58 -48
l-46 -37 0 312 c-1 269 -3 315 -17 343 -26 48 -72 76 -128 77 -52 1 -86 -18
-123 -68 -20 -27 -21 -40 -23 -505 -1 -472 -1 -478 20 -516 44 -76 33 -75 559
-75 298 0 477 4 494 10 56 22 102 103 90 162 -7 36 -40 84 -69 101 -15 8 -98
14 -267 17 l-245 5 70 46 c108 71 302 163 391 184 219 54 363 67 544 51 682
-59 1241 -602 1318 -1281 11 -103 5 -325 -13 -425 -39 -224 -149 -468 -291
-651 -50 -64 -238 -240 -307 -287 -220 -150 -479 -243 -717 -258 -52 -3 -670
-7 -1372 -7 -1272 -2 -1277 -2 -1305 -23 -91 -66 -85 -200 12 -249 40 -20 55
-20 2550 -20 2504 0 2510 0 2545 20 112 66 91 233 -33 263 -27 7 -308 11 -785
11 -409 -1 -745 1 -747 3 -2 2 33 31 78 65 68 51 178 154 265 248 37 39 113
145 161 223 129 208 219 465 249 712 9 75 9 343 -1 410 -11 87 -31 194 -41
225 -1 6 -8 30 -15 55 -46 169 -141 367 -245 515 -153 217 -390 430 -595 534
-21 11 -60 44 -85 73 -55 62 -138 228 -157 313 -44 196 17 396 166 541 105
103 224 152 385 161 l105 6 -28 -29 c-16 -16 -36 -42 -44 -58 -61 -117 66
-246 190 -192 18 8 107 90 199 182 240 244 240 237 -12 489 -144 144 -176 172
-213 181 -33 8 -51 8 -81 -3z"/>
</g>
</svg>
