<?xml version="1.0" standalone="no"?><!DOCTYPE svg PUBLIC "-//W3C//DTD SVG 20010904//EN" "http://www.w3.org/TR/2001/REC-SVG-20010904/DTD/svg10.dtd"><svg version="1.0" xmlns="http://www.w3.org/2000/svg" width="850.000000pt" height="850.000000pt" viewBox="0 0 850.000000 850.000000" preserveAspectRatio="xMidYMid meet"><g transform="translate(0.000000,850.000000) scale(0.100000,-0.100000)"fill="#000000" stroke="none"><path d="M3645 7694 c-389 -41 -592 -81 -860 -170 -493 -162 -923 -430 -1302-810 l-152 -152 -308 184 c-247 147 -309 180 -312 166 -6 -27 52 -1562 60-1562 9 0 1412 689 1421 698 3 4 -144 97 -328 207 l-334 200 113 113 c605 6111447 948 2297 919 699 -24 1337 -255 1872 -679 138 -109 425 -398 525 -528345 -451 548 -925 633 -1485 30 -196 39 -595 17 -785 -45 -382 -134 -694 -292-1025 -322 -676 -892 -1226 -1585 -1530 -143 -63 -396 -148 -560 -187 l-135-33 -1322 -2 -1323 -3 0 -130 0 -130 2605 0 2605 0 2 -359 3 -360 652 422c359 232 652 424 652 427 0 5 -1282 822 -1300 828 -5 2 -9 -133 -9 -347 l0-351 -897 0 -898 0 160 79 c416 203 764 468 1063 808 443 504 707 1081 8091768 23 153 26 698 5 840 -43 291 -79 449 -154 675 -237 717 -749 1367 -13981777 -432 273 -874 429 -1405 499 -107 14 -539 26 -620 18z"/></g></svg>